<?xml version="1.0" encoding="utf-8"?>
<!-- Generator: Adobe Illustrator 19.0.0, SVG Export Plug-In . SVG Version: 6.00 Build 0)  -->
<svg version="1.1" id="Layer_1" xmlns="http://www.w3.org/2000/svg" xmlns:xlink="http://www.w3.org/1999/xlink" x="0px" y="0px"
	 viewBox="-281 373 48 48" style="enable-background:new -281 373 48 48;" xml:space="preserve">
<style type="text/css">
	.st0{fill:#109129;}
	.st1{fill:#FFFFFF;}
</style>
<g>
	<path class="st0" d="M-233,389h-48v-8c0-1.1,0.9-2,2-2h44c1.1,0,2,0.9,2,2V389z"/>
	<rect x="-281" y="389" class="st0" width="48" height="16"/>
	<path class="st0" d="M-233,413c0,1.1-0.9,2-2,2h-44c-1.1,0-2-0.9-2-2v-8h48V413z"/>
	<polygon class="st0" points="-267,393 -267,391 -275,391 -275,393 -273,393 -273,395 -275,395 -275,400.3 -271,403 -267,400.3 
		-267,395 -269,395 -269,393 	"/>
</g>
<g>
	<path class="st1" d="M-265.1,392.8c-0.1,0.1-0.3,0.2-0.5,0.2h-4.6c0.1-0.1,0.2-0.2,0.2-0.3c0,0,0-0.1,0-0.1s0-0.1-0.1-0.1
		s0-0.1-0.1-0.2s0-0.1,0-0.2c0-0.2,0.1-0.4,0.2-0.5l0.6-0.7l-0.2-0.4l0.5-0.5l0.2,0.4l0.3-0.3c-0.1,0.2-0.1,0.3-0.1,0.4
		c0,0.1,0.1,0.3,0.3,0.7l0.5,1h0.3c0,0,0,0,0.1,0s0,0,0.1-0.1s0,0,0-0.1s0-0.1,0-0.1v-0.9c0-0.2-0.1-0.5-0.4-1
		c0.2,0,0.5-0.2,0.9-0.7v2.4c0,0,0,0.1,0,0.1s0.1,0.1,0.1,0.1s0.1,0.1,0.1,0.1s0.1,0.1,0.1,0.1h0.3c0,0,0,0,0.1,0s0.1,0,0.1-0.1
		s0,0,0.1-0.1s0-0.1,0-0.1v-1.6c0-0.2-0.1-0.5-0.4-1c0.2,0,0.5-0.2,0.9-0.7v3.4c0,0.1,0,0.2,0,0.3s0,0.1,0.1,0.2s0.1,0.1,0.1,0.1
		S-265.2,392.8-265.1,392.8z M-268.5,392.4l-0.3-0.5c-0.1-0.2-0.1-0.3-0.1-0.4c-0.1,0.1-0.1,0.1-0.1,0.1s-0.1,0.1-0.1,0.1
		s0,0.1,0,0.1c0,0.1,0,0.1,0.1,0.2l0.2,0.4c0,0,0.1,0,0.1,0s0.1,0,0.1,0S-268.6,392.4-268.5,392.4
		C-268.6,392.4-268.6,392.4-268.5,392.4z M-266.3,389.1c-0.1,0-0.4,0.1-0.7,0.3c-0.3,0.2-0.5,0.3-0.6,0.3c0,0-0.1,0-0.1,0
		s-0.1-0.1-0.1-0.1s-0.1-0.1-0.1-0.2s-0.1-0.2-0.2-0.3h0.2c0,0,0.1,0,0.1,0s0.1,0.1,0.1,0.1s0.1,0.1,0.1,0.1s0.1,0,0.1,0
		c0.1,0,0.2-0.1,0.2-0.2c0,0,0-0.1,0-0.1s0-0.1-0.1-0.1s-0.1-0.1-0.1-0.1s-0.1-0.1-0.1-0.1h0.2c0.1,0,0.1,0,0.2,0.1
		c0.1,0.1,0.2,0.2,0.2,0.2c0.1,0,0.2-0.1,0.2-0.2c0-0.1-0.1-0.2-0.2-0.3l0.2,0h0c0.1,0,0.2,0.1,0.3,0.2
		C-266.4,388.9-266.4,389-266.3,389.1z M-267.1,388.5c0,0-0.1,0-0.2,0c-0.1,0-0.1,0-0.2,0s-0.1,0-0.1,0s-0.1,0-0.1-0.1s0-0.1,0-0.1
		v-0.5c0-0.1-0.1-0.2-0.2-0.4c0.1,0,0.2-0.1,0.3-0.3v0.9c0,0.1,0,0.1,0,0.1s0,0.1,0.1,0.1s0.1,0.1,0.1,0.1S-267.1,388.5-267.1,388.5
		z M-263,392.9c-0.1,0.1-0.2,0.1-0.6,0.1c-0.2,0-0.3,0-0.5,0s-0.2-0.1-0.3-0.1s-0.1-0.1-0.2-0.2s0-0.2,0-0.4v-2.4
		c0-0.2-0.1-0.5-0.4-1c0.2,0,0.5-0.2,0.9-0.7v3.7c0,0.1,0,0.2,0,0.3s0.1,0.2,0.1,0.3s0.1,0.1,0.2,0.2s0.2,0.1,0.4,0.2
		c0,0,0.1,0,0.2,0.1S-263.1,392.9-263,392.9z"/>
	<path class="st1" d="M-258.3,393h-1.6c-0.3,0-0.5-0.1-0.5-0.2v-0.4c0.2,0,0.4-0.1,0.6-0.4l0.3-0.3l0.2,0.3
		c-0.2,0.2-0.3,0.3-0.3,0.3c0,0.1,0.1,0.1,0.2,0.1h0.2c0.1,0,0.2,0,0.2-0.1c0,0,0-0.2-0.1-0.3l-0.6-1.1c-0.2-0.4-0.3-0.7-0.3-0.8
		v-0.2c0-0.2-0.1-0.5-0.4-1c0.2,0,0.5-0.2,0.9-0.7v1.4c0,0.1,0,0.3,0.1,0.5c0,0.1,0.1,0.3,0.3,0.6l0.7,1.5c0.1,0.2,0.2,0.4,0.2,0.7
		V393z M-258.2,390.3c0,0.2-0.1,0.6-0.4,1l-0.2-0.3c0.1-0.1,0.2-0.3,0.2-0.5v-0.7c0-0.2-0.1-0.5-0.4-1c0.2,0,0.5-0.2,0.9-0.7V390.3z
		"/>
	<path class="st1" d="M-255.7,392.9c-0.1,0.1-0.2,0.1-0.6,0.1c-0.2,0-0.3,0-0.5,0s-0.2-0.1-0.3-0.1s-0.1-0.1-0.2-0.2s0-0.2,0-0.4
		v-2.4c0-0.2-0.1-0.5-0.4-1c0.2,0,0.5-0.2,0.9-0.7v3.7c0,0.1,0,0.2,0,0.3s0.1,0.2,0.1,0.3s0.1,0.1,0.2,0.2s0.2,0.1,0.4,0.2
		c0,0,0.1,0,0.2,0.1C-255.9,392.8-255.8,392.9-255.7,392.9z"/>
	<path class="st1" d="M-250.5,393h-2.9c0.1-0.1,0.2-0.2,0.2-0.3c0,0,0-0.1,0-0.1s0-0.1-0.1-0.1s0-0.1-0.1-0.2s0-0.1,0-0.2
		c0-0.2,0.1-0.4,0.2-0.5l0.6-0.7l-0.2-0.4l0.5-0.5l0.2,0.4l0.3-0.3c-0.1,0.2-0.1,0.3-0.1,0.4c0,0.1,0.1,0.3,0.3,0.7l0.5,1h0.6V393z
		 M-251.9,392.4l-0.3-0.5c-0.1-0.2-0.1-0.3-0.1-0.4c0,0,0,0,0,0s-0.1,0.1-0.1,0.1s-0.1,0.1-0.1,0.1s0,0.1,0,0.1c0,0.1,0,0.1,0.1,0.2
		l0.2,0.4c0,0,0.1,0,0.1,0s0.1,0,0.1,0S-252,392.4-251.9,392.4C-251.9,392.4-251.9,392.4-251.9,392.4z"/>
	<path class="st1" d="M-250,393h-0.8v-0.6h0.8V393z"/>
	<path class="st1" d="M-249.4,393h-0.8v-0.6h0.8V393z"/>
	<path class="st1" d="M-248.2,392.8c-0.1,0.1-0.3,0.2-0.5,0.2h-1.1v-0.6h0.5c0,0,0,0,0.1,0s0.1,0,0.1-0.1s0,0,0.1-0.1s0-0.1,0-0.1
		v-2.4c0-0.2-0.2-0.5-0.4-1c0.2,0,0.5-0.2,0.9-0.7v4.1c0,0.1,0,0.2,0,0.3s0,0.1,0.1,0.2s0.1,0.1,0.1,0.1S-248.2,392.8-248.2,392.8z"
		/>
	<path class="st1" d="M-245.9,392.9c-0.1,0.1-0.2,0.1-0.6,0.1c-0.2,0-0.3,0-0.5,0s-0.2-0.1-0.3-0.1s-0.1-0.1-0.2-0.2s0-0.2,0-0.4
		v-2.4c0-0.2-0.2-0.5-0.4-1c0.2,0,0.5-0.2,0.9-0.7v3.7c0,0.1,0,0.2,0,0.3s0.1,0.2,0.1,0.3s0.1,0.1,0.2,0.2s0.2,0.1,0.4,0.2
		c0,0,0.1,0,0.2,0.1S-246,392.9-245.9,392.9z"/>
	<path class="st1" d="M-243.4,393h-1.6c-0.3,0-0.5-0.1-0.5-0.2v-0.4c0.2,0,0.4-0.1,0.6-0.4l0.3-0.3l0.2,0.3
		c-0.2,0.2-0.3,0.3-0.3,0.3c0,0.1,0.1,0.1,0.2,0.1h0.2c0.1,0,0.2,0,0.2-0.1c0,0,0-0.2-0.1-0.3l-0.6-1.1c-0.2-0.4-0.3-0.7-0.3-0.8
		v-0.2c0-0.2-0.2-0.5-0.4-1c0.2,0,0.5-0.2,0.9-0.7v1.4c0,0.1,0,0.3,0.1,0.5c0,0.1,0.1,0.3,0.3,0.6l0.7,1.5c0.1,0.2,0.2,0.4,0.2,0.7
		V393z M-243.3,390.3c0,0.2-0.1,0.6-0.4,1l-0.2-0.3c0.1-0.1,0.2-0.3,0.2-0.5v-0.7c0-0.2-0.2-0.5-0.4-1c0.2,0,0.5-0.2,0.9-0.7V390.3z
		"/>
	<path class="st1" d="M-272,402.4c-0.1,0.1-0.3,0.2-0.5,0.2h-4.6c0.1-0.1,0.2-0.2,0.2-0.3c0,0,0-0.1,0-0.1s0-0.1-0.1-0.1
		s0-0.1-0.1-0.2s0-0.1,0-0.2c0-0.2,0.1-0.4,0.2-0.5l0.6-0.7l-0.2-0.4l0.5-0.5l0.2,0.4l0.3-0.3c-0.1,0.2-0.1,0.3-0.1,0.4
		c0,0.1,0.1,0.3,0.3,0.7l0.5,1h0.3c0,0,0,0,0.1,0s0,0,0.1-0.1s0,0,0-0.1s0-0.1,0-0.1v-0.9c0-0.2-0.1-0.5-0.4-1
		c0.2,0,0.5-0.2,0.9-0.7v2.4c0,0,0,0.1,0,0.1s0.1,0.1,0.1,0.1s0.1,0.1,0.1,0.1s0.1,0.1,0.1,0.1h0.3c0,0,0,0,0.1,0s0.1,0,0.1-0.1
		s0,0,0.1-0.1s0-0.1,0-0.1v-1.6c0-0.2-0.1-0.5-0.4-1c0.2,0,0.5-0.2,0.9-0.7v3.4c0,0.1,0,0.2,0,0.3s0,0.1,0.1,0.2s0.1,0.1,0.1,0.1
		S-272.1,402.4-272,402.4z M-275.4,402l-0.3-0.5c-0.1-0.2-0.1-0.3-0.1-0.4c-0.1,0.1-0.1,0.1-0.1,0.1s-0.1,0.1-0.1,0.1s0,0.1,0,0.1
		c0,0.1,0,0.1,0.1,0.2l0.2,0.4c0,0,0.1,0,0.1,0s0.1,0,0.1,0S-275.6,402-275.4,402C-275.5,402-275.5,402-275.4,402z M-273.2,398.7
		c-0.1,0-0.4,0.1-0.7,0.3c-0.3,0.2-0.5,0.3-0.6,0.3c0,0-0.1,0-0.1,0s-0.1-0.1-0.1-0.1s-0.1-0.1-0.1-0.2s-0.1-0.2-0.2-0.3h0.2
		c0,0,0.1,0,0.1,0s0.1,0.1,0.1,0.1s0.1,0.1,0.1,0.1s0.1,0,0.1,0c0.1,0,0.2-0.1,0.2-0.2c0,0,0-0.1,0-0.1s0-0.1-0.1-0.1
		s-0.1-0.1-0.1-0.1s-0.1-0.1-0.1-0.1h0.2c0.1,0,0.1,0,0.2,0.1c0.1,0.1,0.2,0.2,0.2,0.2c0.1,0,0.2-0.1,0.2-0.2c0-0.1-0.1-0.2-0.2-0.3
		l0.2,0h0c0.1,0,0.2,0.1,0.3,0.2C-273.4,398.5-273.3,398.6-273.2,398.7z M-274,398.1c0,0-0.1,0-0.2,0c-0.1,0-0.1,0-0.2,0
		s-0.1,0-0.1,0s-0.1,0-0.1-0.1s0-0.1,0-0.1v-0.5c0-0.1-0.1-0.2-0.2-0.4c0.1,0,0.2-0.1,0.3-0.3v0.9c0,0.1,0,0.1,0,0.1s0,0.1,0.1,0.1
		s0.1,0.1,0.1,0.1S-274.1,398.1-274,398.1z M-269.9,402.5c-0.1,0.1-0.2,0.1-0.6,0.1c-0.2,0-0.3,0-0.5,0s-0.2-0.1-0.3-0.1
		s-0.1-0.1-0.2-0.2s0-0.2,0-0.4v-2.4c0-0.2-0.1-0.5-0.4-1c0.2,0,0.5-0.2,0.9-0.7v3.7c0,0.1,0,0.2,0,0.3s0.1,0.2,0.1,0.3
		s0.1,0.1,0.2,0.2s0.2,0.1,0.4,0.2c0,0,0.1,0,0.2,0.1S-270,402.5-269.9,402.5z"/>
	<path class="st1" d="M-264.7,402.6c0,0.3,0,0.4-0.1,0.5l-0.4,0.4c-0.2,0.2-0.3,0.2-0.4,0.2c-0.2,0-0.3-0.1-0.4-0.2l-1-1
		c-0.2-0.2-0.3-0.3-0.3-0.3c0-0.1,0.1-0.2,0.2-0.4l0.7-0.7l-0.2,0.3c0,0.1-0.1,0.2-0.1,0.2s0,0.1,0,0.1c0,0.1,0.1,0.2,0.2,0.3
		l0.8,0.8c0.2,0.2,0.3,0.3,0.4,0.3c0,0,0.1-0.1,0.3-0.3c0,0,0.1-0.2,0.1-0.3v-3.2c0-0.2-0.1-0.5-0.4-1c0.2,0,0.5-0.2,0.9-0.7V402.6z
		"/>
	<path class="st1" d="M-260.9,402.6h-0.7l-1.5,1.5c-0.2,0.2-0.5,0.4-0.9,0.4c-0.1,0-0.2,0-0.2,0c0.1,0,0.1,0,0.2-0.1
		s0.1-0.1,0.2-0.1s0.2-0.1,0.2-0.2s0.2-0.1,0.3-0.2l0.7-0.7c0.1-0.1,0.2-0.2,0.2-0.2s-0.1-0.1-0.2-0.3l-0.6-0.6
		c-0.1-0.1-0.1-0.1-0.1-0.1s-0.1-0.1-0.1-0.1s0-0.1,0-0.1s0-0.1,0-0.1c0-0.1,0.1-0.2,0.2-0.4l1.4-1.4c0,0.1,0,0.2,0,0.3
		c0,0.1,0.1,0.3,0.2,0.6l0.3,0.5c0.1,0.3,0.2,0.5,0.2,0.6c0,0,0,0.1,0,0.1h0.4V402.6z M-261.8,402.2c0-0.1,0-0.2-0.1-0.3l-0.3-0.6
		c0-0.1-0.1-0.1-0.1-0.2c0,0,0-0.1,0-0.1s0,0,0-0.1c-0.2,0.2-0.3,0.3-0.3,0.4c0,0.1,0,0.2,0.1,0.3l0.3,0.5c0,0.1,0.1,0.1,0.1,0.2
		s0,0.1,0,0.1c0,0,0,0,0,0s0,0,0,0C-261.9,402.4-261.8,402.3-261.8,402.2z"/>
	<path class="st1" d="M-257.4,402.4c-0.1,0.1-0.3,0.2-0.4,0.2h-3.3V402h0.5l0-0.1c0-0.1-0.1-0.2-0.3-0.2l0.5-0.5l0.4,0.8h0.4
		l-0.2-0.4c-0.1-0.1-0.1-0.2-0.3-0.2l0.5-0.5l0.6,1.1h0.4l-0.4-0.7c-0.1-0.1-0.1-0.2-0.3-0.2l0.5-0.5l0.8,1.5c0,0.1,0.1,0.1,0.1,0.2
		s0.1,0.1,0.1,0.1s0.1,0,0.1,0.1S-257.4,402.4-257.4,402.4z"/>
	<path class="st1" d="M-254.2,401.9c0,0.2-0.1,0.4-0.3,0.6l-1.6,1.6c-0.2,0.2-0.5,0.4-0.9,0.4c-0.1,0-0.2,0-0.2,0
		c0.1,0,0.3-0.1,0.4-0.2s0.3-0.2,0.5-0.4l1.2-1.1c0.2-0.2,0.3-0.4,0.3-0.5c0,0-0.1-0.2-0.2-0.4l-0.2-0.3c-0.1-0.3-0.2-0.4-0.2-0.5
		c0-0.2,0.1-0.3,0.2-0.5l0.5-0.5c0,0.1-0.1,0.2-0.1,0.3c0,0.1,0.1,0.3,0.2,0.5l0.3,0.5C-254.2,401.6-254.2,401.8-254.2,401.9z"/>
	<path class="st1" d="M-247.5,402.6h-4v-1c0.3,0.2,0.7,0.4,1,0.4h1.8l-0.2-0.3h-1.5c-0.2,0-0.4-0.2-0.6-0.5l-0.3-0.6
		c-0.1-0.1-0.1-0.2-0.3-0.2l0.5-0.5l0.5,1c0.1,0.2,0.2,0.3,0.4,0.3h1.6c0.1,0,0.1,0.1,0.2,0.3l0.3,0.6h0.5V402.6z"/>
	<path class="st1" d="M-244.6,402.6h-3.1V402h0.4l-0.1-0.1c0-0.1-0.1-0.1-0.1-0.2c0-0.1,0.1-0.3,0.2-0.4l1.4-1.4
		c-0.1,0.2-0.1,0.3-0.1,0.4c0,0.1,0.1,0.3,0.2,0.6l0.6,1.1h0.6V402.6z M-246,402l-0.3-0.5c-0.1-0.2-0.1-0.3-0.1-0.4c0,0,0,0,0,0
		s-0.1,0.1-0.1,0.1s-0.1,0.1-0.1,0.1s0,0.1,0,0.1c0,0.1,0,0.1,0.1,0.2l0.2,0.4c0,0,0.1,0,0.1,0s0.1,0,0.1,0S-246.1,402-246,402
		C-246.1,402-246,402-246,402z"/>
	<path class="st1" d="M-241.5,403.2c0,0-0.1,0-0.2,0c-0.5,0-1-0.2-1.4-0.6h-1.9V402h1.5l-0.3-0.5c-0.1-0.1-0.2-0.2-0.3-0.3
		s-0.2-0.1-0.3-0.1c-0.1,0-0.2,0-0.3,0.1l0.7-0.7c0.2-0.2,0.3-0.3,0.4-0.3c0.1,0,0.1,0.1,0.2,0.3l0.7,1.5h0.9v0.6h-0.5
		c0.1,0.2,0.3,0.3,0.5,0.4C-241.6,403.1-241.6,403.1-241.5,403.2z"/>
	<path class="st1" d="M-239.1,402.6h-2.9V402h0.4l-0.1-0.1c0-0.1-0.1-0.1-0.1-0.2c0-0.1,0.1-0.3,0.2-0.4l1.4-1.4
		c-0.1,0.2-0.1,0.3-0.1,0.4c0,0.1,0.1,0.3,0.2,0.6L-239.1,402.6z M-240.2,402l-0.3-0.5c-0.1-0.2-0.1-0.3-0.1-0.4c0,0,0,0,0,0
		s-0.1,0.1-0.1,0.1s-0.1,0.1-0.1,0.1s0,0.1,0,0.1c0,0.1,0,0.1,0.1,0.2l0.2,0.4c0,0,0.1,0,0.1,0s0.1,0,0.1,0S-240.3,402-240.2,402
		C-240.3,402-240.2,402-240.2,402z"/>
</g>
<g>
	<path class="st1" d="M-265.1,392.8c-0.1,0.1-0.3,0.2-0.5,0.2h-4.6c0.1-0.1,0.2-0.2,0.2-0.3c0,0,0-0.1,0-0.1s0-0.1-0.1-0.1
		s0-0.1-0.1-0.2s0-0.1,0-0.2c0-0.2,0.1-0.4,0.2-0.5l0.6-0.7l-0.2-0.4l0.5-0.5l0.2,0.4l0.3-0.3c-0.1,0.2-0.1,0.3-0.1,0.4
		c0,0.1,0.1,0.3,0.3,0.7l0.5,1h0.3c0,0,0,0,0.1,0s0,0,0.1-0.1s0,0,0-0.1s0-0.1,0-0.1v-0.9c0-0.2-0.1-0.5-0.4-1
		c0.2,0,0.5-0.2,0.9-0.7v2.4c0,0,0,0.1,0,0.1s0.1,0.1,0.1,0.1s0.1,0.1,0.1,0.1s0.1,0.1,0.1,0.1h0.3c0,0,0,0,0.1,0s0.1,0,0.1-0.1
		s0,0,0.1-0.1s0-0.1,0-0.1v-1.6c0-0.2-0.1-0.5-0.4-1c0.2,0,0.5-0.2,0.9-0.7v3.4c0,0.1,0,0.2,0,0.3s0,0.1,0.1,0.2s0.1,0.1,0.1,0.1
		S-265.2,392.8-265.1,392.8z M-268.5,392.4l-0.3-0.5c-0.1-0.2-0.1-0.3-0.1-0.4c-0.1,0.1-0.1,0.1-0.1,0.1s-0.1,0.1-0.1,0.1
		s0,0.1,0,0.1c0,0.1,0,0.1,0.1,0.2l0.2,0.4c0,0,0.1,0,0.1,0s0.1,0,0.1,0S-268.6,392.4-268.5,392.4
		C-268.6,392.4-268.6,392.4-268.5,392.4z M-266.3,389.1c-0.1,0-0.4,0.1-0.7,0.3c-0.3,0.2-0.5,0.3-0.6,0.3c0,0-0.1,0-0.1,0
		s-0.1-0.1-0.1-0.1s-0.1-0.1-0.1-0.2s-0.1-0.2-0.2-0.3h0.2c0,0,0.1,0,0.1,0s0.1,0.1,0.1,0.1s0.1,0.1,0.1,0.1s0.1,0,0.1,0
		c0.1,0,0.2-0.1,0.2-0.2c0,0,0-0.1,0-0.1s0-0.1-0.1-0.1s-0.1-0.1-0.1-0.1s-0.1-0.1-0.1-0.1h0.2c0.1,0,0.1,0,0.2,0.1
		c0.1,0.1,0.2,0.2,0.2,0.2c0.1,0,0.2-0.1,0.2-0.2c0-0.1-0.1-0.2-0.2-0.3l0.2,0h0c0.1,0,0.2,0.1,0.3,0.2
		C-266.4,388.9-266.4,389-266.3,389.1z M-267.1,388.5c0,0-0.1,0-0.2,0c-0.1,0-0.1,0-0.2,0s-0.1,0-0.1,0s-0.1,0-0.1-0.1s0-0.1,0-0.1
		v-0.5c0-0.1-0.1-0.2-0.2-0.4c0.1,0,0.2-0.1,0.3-0.3v0.9c0,0.1,0,0.1,0,0.1s0,0.1,0.1,0.1s0.1,0.1,0.1,0.1S-267.1,388.5-267.1,388.5
		z M-263,392.9c-0.1,0.1-0.2,0.1-0.6,0.1c-0.2,0-0.3,0-0.5,0s-0.2-0.1-0.3-0.1s-0.1-0.1-0.2-0.2s0-0.2,0-0.4v-2.4
		c0-0.2-0.1-0.5-0.4-1c0.2,0,0.5-0.2,0.9-0.7v3.7c0,0.1,0,0.2,0,0.3s0.1,0.2,0.1,0.3s0.1,0.1,0.2,0.2s0.2,0.1,0.4,0.2
		c0,0,0.1,0,0.2,0.1S-263.1,392.9-263,392.9z"/>
	<path class="st1" d="M-258.3,393h-1.6c-0.3,0-0.5-0.1-0.5-0.2v-0.4c0.2,0,0.4-0.1,0.6-0.4l0.3-0.3l0.2,0.3
		c-0.2,0.2-0.3,0.3-0.3,0.3c0,0.1,0.1,0.1,0.2,0.1h0.2c0.1,0,0.2,0,0.2-0.1c0,0,0-0.2-0.1-0.3l-0.6-1.1c-0.2-0.4-0.3-0.7-0.3-0.8
		v-0.2c0-0.2-0.1-0.5-0.4-1c0.2,0,0.5-0.2,0.9-0.7v1.4c0,0.1,0,0.3,0.1,0.5c0,0.1,0.1,0.3,0.3,0.6l0.7,1.5c0.1,0.2,0.2,0.4,0.2,0.7
		V393z M-258.2,390.3c0,0.2-0.1,0.6-0.4,1l-0.2-0.3c0.1-0.1,0.2-0.3,0.2-0.5v-0.7c0-0.2-0.1-0.5-0.4-1c0.2,0,0.5-0.2,0.9-0.7V390.3z
		"/>
	<path class="st1" d="M-255.7,392.9c-0.1,0.1-0.2,0.1-0.6,0.1c-0.2,0-0.3,0-0.5,0s-0.2-0.1-0.3-0.1s-0.1-0.1-0.2-0.2s0-0.2,0-0.4
		v-2.4c0-0.2-0.1-0.5-0.4-1c0.2,0,0.5-0.2,0.9-0.7v3.7c0,0.1,0,0.2,0,0.3s0.1,0.2,0.1,0.3s0.1,0.1,0.2,0.2s0.2,0.1,0.4,0.2
		c0,0,0.1,0,0.2,0.1C-255.9,392.8-255.8,392.9-255.7,392.9z"/>
	<path class="st1" d="M-250.5,393h-2.9c0.1-0.1,0.2-0.2,0.2-0.3c0,0,0-0.1,0-0.1s0-0.1-0.1-0.1s0-0.1-0.1-0.2s0-0.1,0-0.2
		c0-0.2,0.1-0.4,0.2-0.5l0.6-0.7l-0.2-0.4l0.5-0.5l0.2,0.4l0.3-0.3c-0.1,0.2-0.1,0.3-0.1,0.4c0,0.1,0.1,0.3,0.3,0.7l0.5,1h0.6V393z
		 M-251.9,392.4l-0.3-0.5c-0.1-0.2-0.1-0.3-0.1-0.4c0,0,0,0,0,0s-0.1,0.1-0.1,0.1s-0.1,0.1-0.1,0.1s0,0.1,0,0.1c0,0.1,0,0.1,0.1,0.2
		l0.2,0.4c0,0,0.1,0,0.1,0s0.1,0,0.1,0S-252,392.4-251.9,392.4C-251.9,392.4-251.9,392.4-251.9,392.4z"/>
	<path class="st1" d="M-250,393h-0.8v-0.6h0.8V393z"/>
	<path class="st1" d="M-249.4,393h-0.8v-0.6h0.8V393z"/>
	<path class="st1" d="M-248.2,392.8c-0.1,0.1-0.3,0.2-0.5,0.2h-1.1v-0.6h0.5c0,0,0,0,0.1,0s0.1,0,0.1-0.1s0,0,0.1-0.1s0-0.1,0-0.1
		v-2.4c0-0.2-0.2-0.5-0.4-1c0.2,0,0.5-0.2,0.9-0.7v4.1c0,0.1,0,0.2,0,0.3s0,0.1,0.1,0.2s0.1,0.1,0.1,0.1S-248.2,392.8-248.2,392.8z"
		/>
	<path class="st1" d="M-245.9,392.9c-0.1,0.1-0.2,0.1-0.6,0.1c-0.2,0-0.3,0-0.5,0s-0.2-0.1-0.3-0.1s-0.1-0.1-0.2-0.2s0-0.2,0-0.4
		v-2.4c0-0.2-0.2-0.5-0.4-1c0.2,0,0.5-0.2,0.9-0.7v3.7c0,0.1,0,0.2,0,0.3s0.1,0.2,0.1,0.3s0.1,0.1,0.2,0.2s0.2,0.1,0.4,0.2
		c0,0,0.1,0,0.2,0.1S-246,392.9-245.9,392.9z"/>
	<path class="st1" d="M-243.4,393h-1.6c-0.3,0-0.5-0.1-0.5-0.2v-0.4c0.2,0,0.4-0.1,0.6-0.4l0.3-0.3l0.2,0.3
		c-0.2,0.2-0.3,0.3-0.3,0.3c0,0.1,0.1,0.1,0.2,0.1h0.2c0.1,0,0.2,0,0.2-0.1c0,0,0-0.2-0.1-0.3l-0.6-1.1c-0.2-0.4-0.3-0.7-0.3-0.8
		v-0.2c0-0.2-0.2-0.5-0.4-1c0.2,0,0.5-0.2,0.9-0.7v1.4c0,0.1,0,0.3,0.1,0.5c0,0.1,0.1,0.3,0.3,0.6l0.7,1.5c0.1,0.2,0.2,0.4,0.2,0.7
		V393z M-243.3,390.3c0,0.2-0.1,0.6-0.4,1l-0.2-0.3c0.1-0.1,0.2-0.3,0.2-0.5v-0.7c0-0.2-0.2-0.5-0.4-1c0.2,0,0.5-0.2,0.9-0.7V390.3z
		"/>
	<path class="st1" d="M-272,402.4c-0.1,0.1-0.3,0.2-0.5,0.2h-4.6c0.1-0.1,0.2-0.2,0.2-0.3c0,0,0-0.1,0-0.1s0-0.1-0.1-0.1
		s0-0.1-0.1-0.2s0-0.1,0-0.2c0-0.2,0.1-0.4,0.2-0.5l0.6-0.7l-0.2-0.4l0.5-0.5l0.2,0.4l0.3-0.3c-0.1,0.2-0.1,0.3-0.1,0.4
		c0,0.1,0.1,0.3,0.3,0.7l0.5,1h0.3c0,0,0,0,0.1,0s0,0,0.1-0.1s0,0,0-0.1s0-0.1,0-0.1v-0.9c0-0.2-0.1-0.5-0.4-1
		c0.2,0,0.5-0.2,0.9-0.7v2.4c0,0,0,0.1,0,0.1s0.1,0.1,0.1,0.1s0.1,0.1,0.1,0.1s0.1,0.1,0.1,0.1h0.3c0,0,0,0,0.1,0s0.1,0,0.1-0.1
		s0,0,0.1-0.1s0-0.1,0-0.1v-1.6c0-0.2-0.1-0.5-0.4-1c0.2,0,0.5-0.2,0.9-0.7v3.4c0,0.1,0,0.2,0,0.3s0,0.1,0.1,0.2s0.1,0.1,0.1,0.1
		S-272.1,402.4-272,402.4z M-275.4,402l-0.3-0.5c-0.1-0.2-0.1-0.3-0.1-0.4c-0.1,0.1-0.1,0.1-0.1,0.1s-0.1,0.1-0.1,0.1s0,0.1,0,0.1
		c0,0.1,0,0.1,0.1,0.2l0.2,0.4c0,0,0.1,0,0.1,0s0.1,0,0.1,0S-275.6,402-275.4,402C-275.5,402-275.5,402-275.4,402z M-273.2,398.7
		c-0.1,0-0.4,0.1-0.7,0.3c-0.3,0.2-0.5,0.3-0.6,0.3c0,0-0.1,0-0.1,0s-0.1-0.1-0.1-0.1s-0.1-0.1-0.1-0.2s-0.1-0.2-0.2-0.3h0.2
		c0,0,0.1,0,0.1,0s0.1,0.1,0.1,0.1s0.1,0.1,0.1,0.1s0.1,0,0.1,0c0.1,0,0.2-0.1,0.2-0.2c0,0,0-0.1,0-0.1s0-0.1-0.1-0.1
		s-0.1-0.1-0.1-0.1s-0.1-0.1-0.1-0.1h0.2c0.1,0,0.1,0,0.2,0.1c0.1,0.1,0.2,0.2,0.2,0.2c0.1,0,0.2-0.1,0.2-0.2c0-0.1-0.1-0.2-0.2-0.3
		l0.2,0h0c0.1,0,0.2,0.1,0.3,0.2C-273.4,398.5-273.3,398.6-273.2,398.7z M-274,398.1c0,0-0.1,0-0.2,0c-0.1,0-0.1,0-0.2,0
		s-0.1,0-0.1,0s-0.1,0-0.1-0.1s0-0.1,0-0.1v-0.5c0-0.1-0.1-0.2-0.2-0.4c0.1,0,0.2-0.1,0.3-0.3v0.9c0,0.1,0,0.1,0,0.1s0,0.1,0.1,0.1
		s0.1,0.1,0.1,0.1S-274.1,398.1-274,398.1z M-269.9,402.5c-0.1,0.1-0.2,0.1-0.6,0.1c-0.2,0-0.3,0-0.5,0s-0.2-0.1-0.3-0.1
		s-0.1-0.1-0.2-0.2s0-0.2,0-0.4v-2.4c0-0.2-0.1-0.5-0.4-1c0.2,0,0.5-0.2,0.9-0.7v3.7c0,0.1,0,0.2,0,0.3s0.1,0.2,0.1,0.3
		s0.1,0.1,0.2,0.2s0.2,0.1,0.4,0.2c0,0,0.1,0,0.2,0.1S-270,402.5-269.9,402.5z"/>
	<path class="st1" d="M-264.7,402.6c0,0.3,0,0.4-0.1,0.5l-0.4,0.4c-0.2,0.2-0.3,0.2-0.4,0.2c-0.2,0-0.3-0.1-0.4-0.2l-1-1
		c-0.2-0.2-0.3-0.3-0.3-0.3c0-0.1,0.1-0.2,0.2-0.4l0.7-0.7l-0.2,0.3c0,0.1-0.1,0.2-0.1,0.2s0,0.1,0,0.1c0,0.1,0.1,0.2,0.2,0.3
		l0.8,0.8c0.2,0.2,0.3,0.3,0.4,0.3c0,0,0.1-0.1,0.3-0.3c0,0,0.1-0.2,0.1-0.3v-3.2c0-0.2-0.1-0.5-0.4-1c0.2,0,0.5-0.2,0.9-0.7V402.6z
		"/>
	<path class="st1" d="M-260.9,402.6h-0.7l-1.5,1.5c-0.2,0.2-0.5,0.4-0.9,0.4c-0.1,0-0.2,0-0.2,0c0.1,0,0.1,0,0.2-0.1
		s0.1-0.1,0.2-0.1s0.2-0.1,0.2-0.2s0.2-0.1,0.3-0.2l0.7-0.7c0.1-0.1,0.2-0.2,0.2-0.2s-0.1-0.1-0.2-0.3l-0.6-0.6
		c-0.1-0.1-0.1-0.1-0.1-0.1s-0.1-0.1-0.1-0.1s0-0.1,0-0.1s0-0.1,0-0.1c0-0.1,0.1-0.2,0.2-0.4l1.4-1.4c0,0.1,0,0.2,0,0.3
		c0,0.1,0.1,0.3,0.2,0.6l0.3,0.5c0.1,0.3,0.2,0.5,0.2,0.6c0,0,0,0.1,0,0.1h0.4V402.6z M-261.8,402.2c0-0.1,0-0.2-0.1-0.3l-0.3-0.6
		c0-0.1-0.1-0.1-0.1-0.2c0,0,0-0.1,0-0.1s0,0,0-0.1c-0.2,0.2-0.3,0.3-0.3,0.4c0,0.1,0,0.2,0.1,0.3l0.3,0.5c0,0.1,0.1,0.1,0.1,0.2
		s0,0.1,0,0.1c0,0,0,0,0,0s0,0,0,0C-261.9,402.4-261.8,402.3-261.8,402.2z"/>
	<path class="st1" d="M-257.4,402.4c-0.1,0.1-0.3,0.2-0.4,0.2h-3.3V402h0.5l0-0.1c0-0.1-0.1-0.2-0.3-0.2l0.5-0.5l0.4,0.8h0.4
		l-0.2-0.4c-0.1-0.1-0.1-0.2-0.3-0.2l0.5-0.5l0.6,1.1h0.4l-0.4-0.7c-0.1-0.1-0.1-0.2-0.3-0.2l0.5-0.5l0.8,1.5c0,0.1,0.1,0.1,0.1,0.2
		s0.1,0.1,0.1,0.1s0.1,0,0.1,0.1S-257.4,402.4-257.4,402.4z"/>
	<path class="st1" d="M-254.2,401.9c0,0.2-0.1,0.4-0.3,0.6l-1.6,1.6c-0.2,0.2-0.5,0.4-0.9,0.4c-0.1,0-0.2,0-0.2,0
		c0.1,0,0.3-0.1,0.4-0.2s0.3-0.2,0.5-0.4l1.2-1.1c0.2-0.2,0.3-0.4,0.3-0.5c0,0-0.1-0.2-0.2-0.4l-0.2-0.3c-0.1-0.3-0.2-0.4-0.2-0.5
		c0-0.2,0.1-0.3,0.2-0.5l0.5-0.5c0,0.1-0.1,0.2-0.1,0.3c0,0.1,0.1,0.3,0.2,0.5l0.3,0.5C-254.2,401.6-254.2,401.8-254.2,401.9z"/>
	<path class="st1" d="M-247.5,402.6h-4v-1c0.3,0.2,0.7,0.4,1,0.4h1.8l-0.2-0.3h-1.5c-0.2,0-0.4-0.2-0.6-0.5l-0.3-0.6
		c-0.1-0.1-0.1-0.2-0.3-0.2l0.5-0.5l0.5,1c0.1,0.2,0.2,0.3,0.4,0.3h1.6c0.1,0,0.1,0.1,0.2,0.3l0.3,0.6h0.5V402.6z"/>
	<path class="st1" d="M-244.6,402.6h-3.1V402h0.4l-0.1-0.1c0-0.1-0.1-0.1-0.1-0.2c0-0.1,0.1-0.3,0.2-0.4l1.4-1.4
		c-0.1,0.2-0.1,0.3-0.1,0.4c0,0.1,0.1,0.3,0.2,0.6l0.6,1.1h0.6V402.6z M-246,402l-0.3-0.5c-0.1-0.2-0.1-0.3-0.1-0.4c0,0,0,0,0,0
		s-0.1,0.1-0.1,0.1s-0.1,0.1-0.1,0.1s0,0.1,0,0.1c0,0.1,0,0.1,0.1,0.2l0.2,0.4c0,0,0.1,0,0.1,0s0.1,0,0.1,0S-246.1,402-246,402
		C-246.1,402-246,402-246,402z"/>
	<path class="st1" d="M-241.5,403.2c0,0-0.1,0-0.2,0c-0.5,0-1-0.2-1.4-0.6h-1.9V402h1.5l-0.3-0.5c-0.1-0.1-0.2-0.2-0.3-0.3
		s-0.2-0.1-0.3-0.1c-0.1,0-0.2,0-0.3,0.1l0.7-0.7c0.2-0.2,0.3-0.3,0.4-0.3c0.1,0,0.1,0.1,0.2,0.3l0.7,1.5h0.9v0.6h-0.5
		c0.1,0.2,0.3,0.3,0.5,0.4C-241.6,403.1-241.6,403.1-241.5,403.2z"/>
	<path class="st1" d="M-239.1,402.6h-2.9V402h0.4l-0.1-0.1c0-0.1-0.1-0.1-0.1-0.2c0-0.1,0.1-0.3,0.2-0.4l1.4-1.4
		c-0.1,0.2-0.1,0.3-0.1,0.4c0,0.1,0.1,0.3,0.2,0.6L-239.1,402.6z M-240.2,402l-0.3-0.5c-0.1-0.2-0.1-0.3-0.1-0.4c0,0,0,0,0,0
		s-0.1,0.1-0.1,0.1s-0.1,0.1-0.1,0.1s0,0.1,0,0.1c0,0.1,0,0.1,0.1,0.2l0.2,0.4c0,0,0.1,0,0.1,0s0.1,0,0.1,0S-240.3,402-240.2,402
		C-240.3,402-240.2,402-240.2,402z"/>
</g>
<g>
	<path class="st1" d="M-265.1,392.8c-0.1,0.1-0.3,0.2-0.5,0.2h-4.6c0.1-0.1,0.2-0.2,0.2-0.3c0,0,0-0.1,0-0.1s0-0.1-0.1-0.1
		s0-0.1-0.1-0.2s0-0.1,0-0.2c0-0.2,0.1-0.4,0.2-0.5l0.6-0.7l-0.2-0.4l0.5-0.5l0.2,0.4l0.3-0.3c-0.1,0.2-0.1,0.3-0.1,0.4
		c0,0.1,0.1,0.3,0.3,0.7l0.5,1h0.3c0,0,0,0,0.1,0s0,0,0.1-0.1s0,0,0-0.1s0-0.1,0-0.1v-0.9c0-0.2-0.1-0.5-0.4-1
		c0.2,0,0.5-0.2,0.9-0.7v2.4c0,0,0,0.1,0,0.1s0.1,0.1,0.1,0.1s0.1,0.1,0.1,0.1s0.1,0.1,0.1,0.1h0.3c0,0,0,0,0.1,0s0.1,0,0.1-0.1
		s0,0,0.1-0.1s0-0.1,0-0.1v-1.6c0-0.2-0.1-0.5-0.4-1c0.2,0,0.5-0.2,0.9-0.7v3.4c0,0.1,0,0.2,0,0.3s0,0.1,0.1,0.2s0.1,0.1,0.1,0.1
		S-265.2,392.8-265.1,392.8z M-268.5,392.4l-0.3-0.5c-0.1-0.2-0.1-0.3-0.1-0.4c-0.1,0.1-0.1,0.1-0.1,0.1s-0.1,0.1-0.1,0.1
		s0,0.1,0,0.1c0,0.1,0,0.1,0.1,0.2l0.2,0.4c0,0,0.1,0,0.1,0s0.1,0,0.1,0S-268.6,392.4-268.5,392.4
		C-268.6,392.4-268.6,392.4-268.5,392.4z M-266.3,389.1c-0.1,0-0.4,0.1-0.7,0.3c-0.3,0.2-0.5,0.3-0.6,0.3c0,0-0.1,0-0.1,0
		s-0.1-0.1-0.1-0.1s-0.1-0.1-0.1-0.2s-0.1-0.2-0.2-0.3h0.2c0,0,0.1,0,0.1,0s0.1,0.1,0.1,0.1s0.1,0.1,0.1,0.1s0.1,0,0.1,0
		c0.1,0,0.2-0.1,0.2-0.2c0,0,0-0.1,0-0.1s0-0.1-0.1-0.1s-0.1-0.1-0.1-0.1s-0.1-0.1-0.1-0.1h0.2c0.1,0,0.1,0,0.2,0.1
		c0.1,0.1,0.2,0.2,0.2,0.2c0.1,0,0.2-0.1,0.2-0.2c0-0.1-0.1-0.2-0.2-0.3l0.2,0h0c0.1,0,0.2,0.1,0.3,0.2
		C-266.4,388.9-266.4,389-266.3,389.1z M-267.1,388.5c0,0-0.1,0-0.2,0c-0.1,0-0.1,0-0.2,0s-0.1,0-0.1,0s-0.1,0-0.1-0.1s0-0.1,0-0.1
		v-0.5c0-0.1-0.1-0.2-0.2-0.4c0.1,0,0.2-0.1,0.3-0.3v0.9c0,0.1,0,0.1,0,0.1s0,0.1,0.1,0.1s0.1,0.1,0.1,0.1S-267.1,388.5-267.1,388.5
		z M-263,392.9c-0.1,0.1-0.2,0.1-0.6,0.1c-0.2,0-0.3,0-0.5,0s-0.2-0.1-0.3-0.1s-0.1-0.1-0.2-0.2s0-0.2,0-0.4v-2.4
		c0-0.2-0.1-0.5-0.4-1c0.2,0,0.5-0.2,0.9-0.7v3.7c0,0.1,0,0.2,0,0.3s0.1,0.2,0.1,0.3s0.1,0.1,0.2,0.2s0.2,0.1,0.4,0.2
		c0,0,0.1,0,0.2,0.1S-263.1,392.9-263,392.9z"/>
	<path class="st1" d="M-258.3,393h-1.6c-0.3,0-0.5-0.1-0.5-0.2v-0.4c0.2,0,0.4-0.1,0.6-0.4l0.3-0.3l0.2,0.3
		c-0.2,0.2-0.3,0.3-0.3,0.3c0,0.1,0.1,0.1,0.2,0.1h0.2c0.1,0,0.2,0,0.2-0.1c0,0,0-0.2-0.1-0.3l-0.6-1.1c-0.2-0.4-0.3-0.7-0.3-0.8
		v-0.2c0-0.2-0.1-0.5-0.4-1c0.2,0,0.5-0.2,0.9-0.7v1.4c0,0.1,0,0.3,0.1,0.5c0,0.1,0.1,0.3,0.3,0.6l0.7,1.5c0.1,0.2,0.2,0.4,0.2,0.7
		V393z M-258.2,390.3c0,0.2-0.1,0.6-0.4,1l-0.2-0.3c0.1-0.1,0.2-0.3,0.2-0.5v-0.7c0-0.2-0.1-0.5-0.4-1c0.2,0,0.5-0.2,0.9-0.7V390.3z
		"/>
	<path class="st1" d="M-255.7,392.9c-0.1,0.1-0.2,0.1-0.6,0.1c-0.2,0-0.3,0-0.5,0s-0.2-0.1-0.3-0.1s-0.1-0.1-0.2-0.2s0-0.2,0-0.4
		v-2.4c0-0.2-0.1-0.5-0.4-1c0.2,0,0.5-0.2,0.9-0.7v3.7c0,0.1,0,0.2,0,0.3s0.1,0.2,0.1,0.3s0.1,0.1,0.2,0.2s0.2,0.1,0.4,0.2
		c0,0,0.1,0,0.2,0.1C-255.9,392.8-255.8,392.9-255.7,392.9z"/>
	<path class="st1" d="M-250.5,393h-2.9c0.1-0.1,0.2-0.2,0.2-0.3c0,0,0-0.1,0-0.1s0-0.1-0.1-0.1s0-0.1-0.1-0.2s0-0.1,0-0.2
		c0-0.2,0.1-0.4,0.2-0.5l0.6-0.7l-0.2-0.4l0.5-0.5l0.2,0.4l0.3-0.3c-0.1,0.2-0.1,0.3-0.1,0.4c0,0.1,0.1,0.3,0.3,0.7l0.5,1h0.6V393z
		 M-251.9,392.4l-0.3-0.5c-0.1-0.2-0.1-0.3-0.1-0.4c0,0,0,0,0,0s-0.1,0.1-0.1,0.1s-0.1,0.1-0.1,0.1s0,0.1,0,0.1c0,0.1,0,0.1,0.1,0.2
		l0.2,0.4c0,0,0.1,0,0.1,0s0.1,0,0.1,0S-252,392.4-251.9,392.4C-251.9,392.4-251.9,392.4-251.9,392.4z"/>
	<path class="st1" d="M-250,393h-0.8v-0.6h0.8V393z"/>
	<path class="st1" d="M-249.4,393h-0.8v-0.6h0.8V393z"/>
	<path class="st1" d="M-248.2,392.8c-0.1,0.1-0.3,0.2-0.5,0.2h-1.1v-0.6h0.5c0,0,0,0,0.1,0s0.1,0,0.1-0.1s0,0,0.1-0.1s0-0.1,0-0.1
		v-2.4c0-0.2-0.2-0.5-0.4-1c0.2,0,0.5-0.2,0.9-0.7v4.1c0,0.1,0,0.2,0,0.3s0,0.1,0.1,0.2s0.1,0.1,0.1,0.1S-248.2,392.8-248.2,392.8z"
		/>
	<path class="st1" d="M-245.9,392.9c-0.1,0.1-0.2,0.1-0.6,0.1c-0.2,0-0.3,0-0.5,0s-0.2-0.1-0.3-0.1s-0.1-0.1-0.2-0.2s0-0.2,0-0.4
		v-2.4c0-0.2-0.2-0.5-0.4-1c0.2,0,0.5-0.2,0.9-0.7v3.7c0,0.1,0,0.2,0,0.3s0.1,0.2,0.1,0.3s0.1,0.1,0.2,0.2s0.2,0.1,0.4,0.2
		c0,0,0.1,0,0.2,0.1S-246,392.9-245.9,392.9z"/>
	<path class="st1" d="M-243.4,393h-1.6c-0.3,0-0.5-0.1-0.5-0.2v-0.4c0.2,0,0.4-0.1,0.6-0.4l0.3-0.3l0.2,0.3
		c-0.2,0.2-0.3,0.3-0.3,0.3c0,0.1,0.1,0.1,0.2,0.1h0.2c0.1,0,0.2,0,0.2-0.1c0,0,0-0.2-0.1-0.3l-0.6-1.1c-0.2-0.4-0.3-0.7-0.3-0.8
		v-0.2c0-0.2-0.2-0.5-0.4-1c0.2,0,0.5-0.2,0.9-0.7v1.4c0,0.1,0,0.3,0.1,0.5c0,0.1,0.1,0.3,0.3,0.6l0.7,1.5c0.1,0.2,0.2,0.4,0.2,0.7
		V393z M-243.3,390.3c0,0.2-0.1,0.6-0.4,1l-0.2-0.3c0.1-0.1,0.2-0.3,0.2-0.5v-0.7c0-0.2-0.2-0.5-0.4-1c0.2,0,0.5-0.2,0.9-0.7V390.3z
		"/>
	<path class="st1" d="M-272,402.4c-0.1,0.1-0.3,0.2-0.5,0.2h-4.6c0.1-0.1,0.2-0.2,0.2-0.3c0,0,0-0.1,0-0.1s0-0.1-0.1-0.1
		s0-0.1-0.1-0.2s0-0.1,0-0.2c0-0.2,0.1-0.4,0.2-0.5l0.6-0.7l-0.2-0.4l0.5-0.5l0.2,0.4l0.3-0.3c-0.1,0.2-0.1,0.3-0.1,0.4
		c0,0.1,0.1,0.3,0.3,0.7l0.5,1h0.3c0,0,0,0,0.1,0s0,0,0.1-0.1s0,0,0-0.1s0-0.1,0-0.1v-0.9c0-0.2-0.1-0.5-0.4-1
		c0.2,0,0.5-0.2,0.9-0.7v2.4c0,0,0,0.1,0,0.1s0.1,0.1,0.1,0.1s0.1,0.1,0.1,0.1s0.1,0.1,0.1,0.1h0.3c0,0,0,0,0.1,0s0.1,0,0.1-0.1
		s0,0,0.1-0.1s0-0.1,0-0.1v-1.6c0-0.2-0.1-0.5-0.4-1c0.2,0,0.5-0.2,0.9-0.7v3.4c0,0.1,0,0.2,0,0.3s0,0.1,0.1,0.2s0.1,0.1,0.1,0.1
		S-272.1,402.4-272,402.4z M-275.4,402l-0.3-0.5c-0.1-0.2-0.1-0.3-0.1-0.4c-0.1,0.1-0.1,0.1-0.1,0.1s-0.1,0.1-0.1,0.1s0,0.1,0,0.1
		c0,0.1,0,0.1,0.1,0.2l0.2,0.4c0,0,0.1,0,0.1,0s0.1,0,0.1,0S-275.6,402-275.4,402C-275.5,402-275.5,402-275.4,402z M-273.2,398.7
		c-0.1,0-0.4,0.1-0.7,0.3c-0.3,0.2-0.5,0.3-0.6,0.3c0,0-0.1,0-0.1,0s-0.1-0.1-0.1-0.1s-0.1-0.1-0.1-0.2s-0.1-0.2-0.2-0.3h0.2
		c0,0,0.1,0,0.1,0s0.1,0.1,0.1,0.1s0.1,0.1,0.1,0.1s0.1,0,0.1,0c0.1,0,0.2-0.1,0.2-0.2c0,0,0-0.1,0-0.1s0-0.1-0.1-0.1
		s-0.1-0.1-0.1-0.1s-0.1-0.1-0.1-0.1h0.2c0.1,0,0.1,0,0.2,0.1c0.1,0.1,0.2,0.2,0.2,0.2c0.1,0,0.2-0.1,0.2-0.2c0-0.1-0.1-0.2-0.2-0.3
		l0.2,0h0c0.1,0,0.2,0.1,0.3,0.2C-273.4,398.5-273.3,398.6-273.2,398.7z M-274,398.1c0,0-0.1,0-0.2,0c-0.1,0-0.1,0-0.2,0
		s-0.1,0-0.1,0s-0.1,0-0.1-0.1s0-0.1,0-0.1v-0.5c0-0.1-0.1-0.2-0.2-0.4c0.1,0,0.2-0.1,0.3-0.3v0.9c0,0.1,0,0.1,0,0.1s0,0.1,0.1,0.1
		s0.1,0.1,0.1,0.1S-274.1,398.1-274,398.1z M-269.9,402.5c-0.1,0.1-0.2,0.1-0.6,0.1c-0.2,0-0.3,0-0.5,0s-0.2-0.1-0.3-0.1
		s-0.1-0.1-0.2-0.2s0-0.2,0-0.4v-2.4c0-0.2-0.1-0.5-0.4-1c0.2,0,0.5-0.2,0.9-0.7v3.7c0,0.1,0,0.2,0,0.3s0.1,0.2,0.1,0.3
		s0.1,0.1,0.2,0.2s0.2,0.1,0.4,0.2c0,0,0.1,0,0.2,0.1S-270,402.5-269.9,402.5z"/>
	<path class="st1" d="M-264.7,402.6c0,0.3,0,0.4-0.1,0.5l-0.4,0.4c-0.2,0.2-0.3,0.2-0.4,0.2c-0.2,0-0.3-0.1-0.4-0.2l-1-1
		c-0.2-0.2-0.3-0.3-0.3-0.3c0-0.1,0.1-0.2,0.2-0.4l0.7-0.7l-0.2,0.3c0,0.1-0.1,0.2-0.1,0.2s0,0.1,0,0.1c0,0.1,0.1,0.2,0.2,0.3
		l0.8,0.8c0.2,0.2,0.3,0.3,0.4,0.3c0,0,0.1-0.1,0.3-0.3c0,0,0.1-0.2,0.1-0.3v-3.2c0-0.2-0.1-0.5-0.4-1c0.2,0,0.5-0.2,0.9-0.7V402.6z
		"/>
	<path class="st1" d="M-260.9,402.6h-0.7l-1.5,1.5c-0.2,0.2-0.5,0.4-0.9,0.4c-0.1,0-0.2,0-0.2,0c0.1,0,0.1,0,0.2-0.1
		s0.1-0.1,0.2-0.1s0.2-0.1,0.2-0.2s0.2-0.1,0.3-0.2l0.7-0.7c0.1-0.1,0.2-0.2,0.2-0.2s-0.1-0.1-0.2-0.3l-0.6-0.6
		c-0.1-0.1-0.1-0.1-0.1-0.1s-0.1-0.1-0.1-0.1s0-0.1,0-0.1s0-0.1,0-0.1c0-0.1,0.1-0.2,0.2-0.4l1.4-1.4c0,0.1,0,0.2,0,0.3
		c0,0.1,0.1,0.3,0.2,0.6l0.3,0.5c0.1,0.3,0.2,0.5,0.2,0.6c0,0,0,0.1,0,0.1h0.4V402.6z M-261.8,402.2c0-0.1,0-0.2-0.1-0.3l-0.3-0.6
		c0-0.1-0.1-0.1-0.1-0.2c0,0,0-0.1,0-0.1s0,0,0-0.1c-0.2,0.2-0.3,0.3-0.3,0.4c0,0.1,0,0.2,0.1,0.3l0.3,0.5c0,0.1,0.1,0.1,0.1,0.2
		s0,0.1,0,0.1c0,0,0,0,0,0s0,0,0,0C-261.9,402.4-261.8,402.3-261.8,402.2z"/>
	<path class="st1" d="M-257.4,402.4c-0.1,0.1-0.3,0.2-0.4,0.2h-3.3V402h0.5l0-0.1c0-0.1-0.1-0.2-0.3-0.2l0.5-0.5l0.4,0.8h0.4
		l-0.2-0.4c-0.1-0.1-0.1-0.2-0.3-0.2l0.5-0.5l0.6,1.1h0.4l-0.4-0.7c-0.1-0.1-0.1-0.2-0.3-0.2l0.5-0.5l0.8,1.5c0,0.1,0.1,0.1,0.1,0.2
		s0.1,0.1,0.1,0.1s0.1,0,0.1,0.1S-257.4,402.4-257.4,402.4z"/>
	<path class="st1" d="M-254.2,401.9c0,0.2-0.1,0.4-0.3,0.6l-1.6,1.6c-0.2,0.2-0.5,0.4-0.9,0.4c-0.1,0-0.2,0-0.2,0
		c0.1,0,0.3-0.1,0.4-0.2s0.3-0.2,0.5-0.4l1.2-1.1c0.2-0.2,0.3-0.4,0.3-0.5c0,0-0.1-0.2-0.2-0.4l-0.2-0.3c-0.1-0.3-0.2-0.4-0.2-0.5
		c0-0.2,0.1-0.3,0.2-0.5l0.5-0.5c0,0.1-0.1,0.2-0.1,0.3c0,0.1,0.1,0.3,0.2,0.5l0.3,0.5C-254.2,401.6-254.2,401.8-254.2,401.9z"/>
	<path class="st1" d="M-247.5,402.6h-4v-1c0.3,0.2,0.7,0.4,1,0.4h1.8l-0.2-0.3h-1.5c-0.2,0-0.4-0.2-0.6-0.5l-0.3-0.6
		c-0.1-0.1-0.1-0.2-0.3-0.2l0.5-0.5l0.5,1c0.1,0.2,0.2,0.3,0.4,0.3h1.6c0.1,0,0.1,0.1,0.2,0.3l0.3,0.6h0.5V402.6z"/>
	<path class="st1" d="M-244.6,402.6h-3.1V402h0.4l-0.1-0.1c0-0.1-0.1-0.1-0.1-0.2c0-0.1,0.1-0.3,0.2-0.4l1.4-1.4
		c-0.1,0.2-0.1,0.3-0.1,0.4c0,0.1,0.1,0.3,0.2,0.6l0.6,1.1h0.6V402.6z M-246,402l-0.3-0.5c-0.1-0.2-0.1-0.3-0.1-0.4c0,0,0,0,0,0
		s-0.1,0.1-0.1,0.1s-0.1,0.1-0.1,0.1s0,0.1,0,0.1c0,0.1,0,0.1,0.1,0.2l0.2,0.4c0,0,0.1,0,0.1,0s0.1,0,0.1,0S-246.1,402-246,402
		C-246.1,402-246,402-246,402z"/>
	<path class="st1" d="M-241.5,403.2c0,0-0.1,0-0.2,0c-0.5,0-1-0.2-1.4-0.6h-1.9V402h1.5l-0.3-0.5c-0.1-0.1-0.2-0.2-0.3-0.3
		s-0.2-0.1-0.3-0.1c-0.1,0-0.2,0-0.3,0.1l0.7-0.7c0.2-0.2,0.3-0.3,0.4-0.3c0.1,0,0.1,0.1,0.2,0.3l0.7,1.5h0.9v0.6h-0.5
		c0.1,0.2,0.3,0.3,0.5,0.4C-241.6,403.1-241.6,403.1-241.5,403.2z"/>
	<path class="st1" d="M-239.1,402.6h-2.9V402h0.4l-0.1-0.1c0-0.1-0.1-0.1-0.1-0.2c0-0.1,0.1-0.3,0.2-0.4l1.4-1.4
		c-0.1,0.2-0.1,0.3-0.1,0.4c0,0.1,0.1,0.3,0.2,0.6L-239.1,402.6z M-240.2,402l-0.3-0.5c-0.1-0.2-0.1-0.3-0.1-0.4c0,0,0,0,0,0
		s-0.1,0.1-0.1,0.1s-0.1,0.1-0.1,0.1s0,0.1,0,0.1c0,0.1,0,0.1,0.1,0.2l0.2,0.4c0,0,0.1,0,0.1,0s0.1,0,0.1,0S-240.3,402-240.2,402
		C-240.3,402-240.2,402-240.2,402z"/>
</g>
</svg>
